<?xml version="1.0" encoding="iso-8859-1"?>
<!-- Uploaded to: SVG Repo, www.svgrepo.com, Generator: SVG Repo Mixer Tools -->
<!DOCTYPE svg PUBLIC "-//W3C//DTD SVG 1.1//EN" "http://www.w3.org/Graphics/SVG/1.1/DTD/svg11.dtd">
<svg fill="#000000" version="1.1" id="Capa_1" xmlns="http://www.w3.org/2000/svg" xmlns:xlink="http://www.w3.org/1999/xlink" 
	 width="800px" height="800px" viewBox="0 0 471.925 471.926"
	 xml:space="preserve">
<g>
	<g id="_x35_7_67_">
		<g>
			<path d="M299.143,61.405c-3.37-3.371-8.835-3.371-12.205,0L48.943,299.399c-3.37,3.37-3.371,8.835,0,12.205L160.32,422.981
				c3.37,3.37,8.835,3.37,12.206,0l237.993-237.993c3.37-3.37,3.37-8.835,0-12.205L299.143,61.405z"/>
			<path d="M35.812,324.736c-2.295-2.295-5.682-3.108-8.768-2.106s-5.35,3.648-5.859,6.854L0.107,461.938
				c-0.434,2.73,0.467,5.504,2.422,7.459s4.729,2.855,7.459,2.422l132.454-21.077c3.204-0.511,5.853-2.773,6.854-5.859
				c1.002-3.086,0.188-6.473-2.107-8.767L35.812,324.736z"/>
			<path d="M469.398,113.905L358.02,2.528c-3.369-3.371-8.835-3.371-12.206,0l-34.543,34.543c-3.369,3.37-3.369,8.835,0,12.205
				l111.377,111.377c3.371,3.37,8.837,3.37,12.206,0l34.544-34.543C472.767,122.74,472.767,117.275,469.398,113.905z"/>
		</g>
	</g>
</g>
</svg>